<mxfile host="app.diagrams.net" modified="2024-01-24T16:39:11.305Z" agent="Mozilla/5.0 (Windows NT 10.0; Win64; x64) AppleWebKit/537.36 (KHTML, like Gecko) Chrome/120.0.0.0 Safari/537.36 OPR/106.0.0.0" version="23.0.1" etag="vsoG2h-C1IwtSLJQVYGA" type="github">
  <diagram name="Page-1" id="goIuTkssjz_kds5zfLVA">
    <mxGraphModel>
      <root>
        <mxCell id="0" />
        <mxCell id="1" parent="0" />
      </root>
    </mxGraphModel>
  </diagram>
</mxfile>
